<svg width="98" height="84" viewBox="0 0 98 84" fill="none" xmlns="http://www.w3.org/2000/svg">
<g clip-path="url(#clip0_327_230)">
<path d="M86.62 9.25142C87.6922 10.6686 88.3898 11.3028 88.6953 11.1486C88.73 11.0994 88.7518 11.0425 88.7587 10.9828C88.7587 10.4628 88.1822 8.89142 86.9832 6.27999C85.7841 3.66857 85.2019 2.45142 85.0693 2.45142C84.7596 2.96193 84.521 3.51169 84.3602 4.0857C84.1022 4.68978 83.8977 5.31501 83.7492 5.95428C83.7492 6.03999 83.9164 6.21142 84.2449 6.47428C84.3843 8.58636 84.6694 10.6865 85.0981 12.76C85.5401 14.8514 85.9686 16.9467 86.3836 19.0457C87.0485 22.1848 87.7095 25.3238 88.3667 28.4628C89.0554 31.5344 89.4625 34.6614 89.583 37.8057C89.594 38.451 89.5613 39.0962 89.4851 39.7371C89.1776 42.5028 86.5297 45.379 81.5413 48.3657C80.4402 49.04 79.8926 49.4343 79.8926 49.5429C79.8926 49.6514 79.9329 49.6057 80.0252 49.6057C80.8358 49.4559 81.6381 49.2652 82.4291 49.0343C84.7811 48.4476 86.2549 47.9143 86.8506 47.4343C89.7522 45.1028 91.2029 41.3448 91.2029 36.16C91.2029 30.8114 89.6753 21.8419 86.62 9.25142Z" fill="#967B65"/>
<path d="M57.1396 26.8972L60.5696 28.8915L62.2184 25.9486L58.7884 23.9543L57.1396 26.8972Z" fill="#967B65"/>
<path d="M82.1875 37.1942C83.2919 35.3786 83.8238 33.2773 83.7152 31.1599C83.6243 28.4146 83.3042 25.6815 82.7582 22.9885C82.1011 19.0228 81.4093 15.0457 80.6829 11.0571C81.3228 11.6914 81.7033 12.0971 81.8359 12.2685C82.3201 12.8399 82.6602 13.0399 82.862 12.9542V12.8742C82.862 12.5942 82.2855 11.1599 81.1326 8.59423C79.9797 6.02852 79.3628 4.77138 79.1899 4.77138C79.0169 4.77138 78.8267 5.3028 78.3655 6.37137C78.0542 7.17709 77.8582 7.73137 77.7891 8.03994C77.7429 8.21137 77.8986 8.48566 78.2502 8.85709C78.9766 13.8476 79.5531 17.4857 79.9797 19.7714C81.1326 26.3314 81.8147 30.9942 82.0261 33.7599C82.0684 34.6133 81.6168 35.3428 80.6714 35.9485C79.874 36.4663 78.944 36.7478 77.9908 36.7599C77.9621 36.7567 77.9331 36.7567 77.9044 36.7599C75.4371 36.7599 73.8229 36.0914 73.0562 34.7657C72.8439 34.4284 72.6515 34.0792 72.4798 33.7199C72.0647 33.7199 71.5055 34.2285 70.8022 35.2571C69.192 37.5657 67.3453 38.7199 65.2624 38.7199C64.8011 38.7437 64.3403 38.6653 63.9135 38.4903C63.4867 38.3154 63.1046 38.0483 62.7951 37.7085C62.3108 37.1371 62.1456 36.2438 62.2993 35.0285C62.3454 34.5885 62.2993 34.3714 62.1033 34.3714C61.6786 34.523 61.2694 34.7144 60.8812 34.9428C58.7098 36.3599 55.6218 37.5028 51.6173 38.3714L51.3982 38.4171C51.4501 38.3314 51.5078 38.2514 51.5481 38.1714C52.5636 36.7661 53.075 35.0641 53.0008 33.3371C52.8682 31.7428 52.7587 30.4799 52.6722 29.4799C52.5858 28.4799 52.5281 27.9885 52.5051 27.9428C52.482 27.8971 52.2572 28.2914 51.9286 28.9885C51.6051 29.8011 51.2197 30.5882 50.7757 31.3428C49.1039 34.1771 48.0374 36.4209 47.5762 38.0742C47.1754 38.1587 46.7689 38.2141 46.3599 38.2399C42.8511 38.2399 40.6874 35.6799 39.8688 30.5599C39.8266 30.2971 39.3769 26.4876 38.5199 19.1314C38.0201 14.5286 37.2482 9.95882 36.2082 5.44566C35.884 4.15268 35.4659 2.88462 34.9573 1.65138C34.5192 0.565662 34.2425 0.0170898 34.133 0.0170898C33.8677 0.533731 33.6738 1.08343 33.5565 1.65138C33.333 2.22953 33.1894 2.83503 33.1299 3.45137C34.89 6.9828 36.5042 16.1771 37.9722 31.0342C38.6755 38.0057 41.2235 41.4933 45.6162 41.4971C45.7258 41.4971 45.9045 41.4971 46.1466 41.4628C46.0796 41.7184 46.0678 41.9852 46.112 42.2457C46.3905 42.3303 46.6864 42.3421 46.9709 42.28C47.1995 44.1019 47.9816 45.8118 49.2134 47.1828C49.8597 47.8857 50.6292 48.4665 51.4847 48.8971C52.1486 49.2953 52.8923 49.545 53.6638 49.6285C54.6322 49.6285 55.4239 49.0952 56.0388 48.0285C56.5764 47.1518 56.8615 46.1459 56.8632 45.1199C56.8632 43.638 56.0158 42.3409 54.3209 41.2285L54.0615 41.0742L54.6668 40.8685C56.968 40.1098 59.1494 39.0324 61.1464 37.6685C61.3885 40.5447 62.5087 41.9828 64.5072 41.9828C66.6171 41.9828 68.4195 41.0133 69.9145 39.0742C70.3868 38.3994 70.9151 37.7648 71.494 37.1771C71.4087 37.7178 71.3644 38.2641 71.3614 38.8114C71.3614 40.9257 72.0128 42.4914 73.3099 43.52C73.9634 44.1086 74.803 44.454 75.6849 44.4971C76.4075 44.4971 76.7687 43.398 76.7687 41.2C76.7712 40.7953 76.75 40.3908 76.7053 39.9885C76.8464 40.0104 76.989 40.0219 77.1319 40.0228C77.2433 40.021 77.3539 40.0037 77.4605 39.9714C78.4205 39.9402 79.3571 39.6693 80.1834 39.1839C81.0097 38.6984 81.699 38.0141 82.1875 37.1942ZM48.4928 37.8857C49.3378 35.8752 50.3522 33.9388 51.5251 32.0971C51.7211 33.7771 51.8248 34.68 51.8248 34.8114C51.8018 36.2685 50.6892 37.2971 48.4698 37.8857H48.4928ZM55.1857 46.4571C53.9754 46.4596 52.7967 46.0748 51.8248 45.36C50.7065 44.6923 49.8028 43.7232 49.2192 42.5657C50.3294 42.7926 51.3972 43.1898 52.384 43.7428C53.5827 44.3357 54.557 45.2955 55.1626 46.4799L55.1857 46.4571ZM75.3967 40.7428C74.7533 40.6959 74.1443 40.4363 73.6673 40.0057C73.3852 39.8184 73.1456 39.5747 72.9639 39.2904C72.7822 39.006 72.6625 38.6871 72.6124 38.3542C73.3378 39.0985 74.2858 39.5914 75.316 39.7599C75.4125 39.9347 75.4584 40.1324 75.4486 40.3314C75.4601 40.6285 75.4428 40.7599 75.3736 40.7599L75.3967 40.7428Z" fill="#967B65"/>
<path d="M31.7004 27.5199C30.386 26.7123 27.7265 26.1409 23.722 25.8056C18.6029 25.3714 14.8559 24.859 12.4808 24.2685C13.5506 23.2593 14.6724 22.3056 15.8417 21.4114C16.4181 21.8913 16.7755 22.0742 16.9312 21.9828C17.0868 21.8914 16.9946 21.5142 16.7986 20.8399C20.7148 18.8361 23.5279 17.4856 25.2381 16.7885C29.2004 15.0704 31.2565 14.1332 31.4064 13.9771C31.9382 12.9479 32.3798 11.8754 32.7265 10.7714C32.7265 10.6228 30.5609 10.3409 26.2296 9.92563C21.6179 9.49135 17.9669 9.2723 15.2767 9.26849C13.9667 9.24142 12.6561 9.28529 11.3509 9.39992C9.7253 9.61706 8.60695 10.1885 7.99013 11.1142C7.46279 11.8147 7.16317 12.6579 7.13118 13.5313C7.13118 14.7313 7.96706 15.8742 9.63883 16.9599C11.2555 17.9389 12.8074 19.0192 14.2852 20.1942C13.0121 21.3047 11.8832 22.5677 10.9244 23.9542C10.198 23.8228 9.80601 23.8228 9.73683 23.9542C9.96369 24.2003 10.2191 24.419 10.4978 24.6056C7.92288 28.5713 6.63542 33.2247 6.63542 38.5656C6.56926 41.2485 7.42054 43.8746 9.05083 46.0171C10.8955 48.4171 13.5223 49.6152 16.9312 49.6113C20.7743 49.6113 24.6328 48.1199 28.5067 45.1371C32.8341 41.7999 34.9978 38.019 34.9978 33.7942C34.9978 30.9409 33.8986 28.8494 31.7004 27.5199ZM12.6768 15.2342C12.0812 14.7999 11.3125 14.299 10.371 13.7313C9.70801 13.3599 9.37943 13.1199 9.37943 13.0114C9.37943 12.6609 11.0281 12.4856 14.3255 12.4856C18.3871 12.4412 22.4455 12.7259 26.4602 13.3371C21.9292 15.2113 18.455 17.0304 16.0377 18.7942C15.1427 17.4167 14.0041 16.2107 12.6768 15.2342ZM29.0659 41.7428C25.438 44.6152 21.5583 46.0533 17.4269 46.0571C14.0411 46.0571 11.4797 44.7047 9.74259 41.9999C8.54406 40.2071 7.90267 38.105 7.89789 35.9542C7.86162 32.2389 9.04975 28.6134 11.2818 25.6285L11.5469 25.3028C12.3828 25.9313 13.0169 26.3771 13.4551 26.6399C15.8711 28.2076 18.6794 29.0781 21.566 29.1542C25.6589 29.3942 28.5605 29.8094 30.2707 30.3999C31.2777 30.7547 32.1522 31.4044 32.7784 32.2628C33.4412 33.0721 33.8125 34.0777 33.8333 35.1199C33.841 37.0056 32.2519 39.2133 29.0659 41.7428Z" fill="#967B65"/>
<path d="M16.2734 35.9543L19.6977 37.9486L21.3464 35.0058L17.9221 33.0115L16.2734 35.9543Z" fill="#967B65"/>
<path d="M39.3902 42.1486C38.8137 42.1143 38.3641 42.8857 38.0816 44.4743C37.9087 45.3371 37.7703 46.1886 37.6665 47.0686C37.4488 46.6478 37.2563 46.2147 37.0901 45.7714C36.1523 43.9771 35.2646 43.0971 34.4268 43.1314C33.9714 43.1314 33.7984 43.5943 33.9022 44.5257C33.9368 44.7371 34.1904 44.9657 34.6631 45.2286C35.1358 45.4914 35.4183 45.6 35.5221 45.5657C35.5863 45.505 35.639 45.4334 35.6777 45.3543C36.3791 45.969 36.8722 46.7831 37.0901 47.6857C37.3322 48.48 37.5628 48.88 37.7703 48.88C37.9779 48.88 38.1335 48.0228 38.3468 46.2114C38.5601 44.4 38.9233 43.4914 39.3902 43.4914C39.529 43.502 39.6632 43.5454 39.7815 43.618C39.8999 43.6905 39.999 43.7902 40.0704 43.9086L40.3817 44.32C40.5201 44.32 40.6238 44.1143 40.693 43.6971C40.7622 43.28 40.8025 43.0286 40.693 42.92C40.5493 42.7017 40.3573 42.5187 40.1315 42.385C39.9058 42.2514 39.6522 42.1705 39.3902 42.1486Z" fill="#967B65"/>
<path d="M46.2671 20.3828C51.4669 18.2228 55.358 16.6799 57.9406 15.7542C58.5687 15.0321 59.1465 14.2684 59.67 13.4685C55.8884 14.7028 52.2854 16.0476 48.8612 17.5028C46.0173 18.7371 44.2879 19.619 43.673 20.1485C43.1502 20.5319 42.6978 21.0017 42.3356 21.5371C41.9378 22.1085 41.7591 22.4399 41.8686 22.5257C41.834 22.4971 43.2867 21.7942 46.2671 20.3828Z" fill="#967B65"/>
<path d="M70.7153 16.3029C70.514 16.5792 70.3798 16.898 70.3233 17.2343C70.3233 17.4972 70.3868 17.6286 70.5193 17.6286C70.5539 17.6286 70.6 17.5314 70.6692 17.3314C70.7151 17.1824 70.806 17.051 70.9298 16.9549C71.0535 16.8588 71.204 16.8027 71.361 16.7943C71.5286 16.8072 71.6899 16.8636 71.8285 16.9579C71.9672 17.0522 72.0783 17.181 72.1507 17.3314C71.5199 17.3953 70.9203 17.635 70.4213 18.0229C70.1597 18.2546 69.9562 18.5436 69.8271 18.867C69.698 19.1904 69.6468 19.5393 69.6777 19.8857C69.8813 21.347 70.1954 22.7911 70.6173 24.2057C70.912 25.1301 71.0636 26.0934 71.067 27.0629C71.0706 27.4771 71.0202 27.89 70.9171 28.2914C70.8479 28.52 70.8652 28.6343 70.9632 28.6343C71.0612 28.6343 71.0958 28.5829 71.165 28.4857C71.4026 27.9973 71.5041 27.4547 71.459 26.9143C71.4492 25.4881 71.2555 24.0689 70.8825 22.6914C70.6234 21.8037 70.4098 20.9035 70.2426 19.9943C70.1917 19.745 70.2369 19.4859 70.3692 19.268C70.5015 19.0501 70.7114 18.8893 70.9575 18.8171C71.7222 18.5208 72.5411 18.3865 73.3613 18.4229C73.4248 18.4229 73.5228 18.28 73.6553 17.9829C73.7307 17.8118 73.7812 17.6309 73.8052 17.4457C73.8052 17.3429 73.5055 17.0114 72.9117 16.44C72.3179 15.8686 71.9547 15.5771 71.8222 15.5771C71.5929 15.6027 71.3731 15.6818 71.1807 15.808C70.9883 15.9342 70.8288 16.1038 70.7153 16.3029Z" fill="#967B65"/>
<path d="M46.1518 9.14283L46.4228 8.95426C47.0524 9.45606 47.5839 10.0681 47.9908 10.76C48.354 11.2171 48.5327 11.7828 48.8958 12.2457C49.0766 12.0274 49.21 11.7745 49.2878 11.5028C49.4521 10.5382 49.4521 9.55315 49.2878 8.58854C49.1956 7.95426 48.9708 7.34854 48.8728 6.71997C48.7978 6.40569 49.1437 6.14854 49.4493 6.11426C50.1526 6.2514 50.4927 6.95426 50.9827 7.39426C51.0785 6.89927 51.1172 6.39507 51.098 5.8914C51.1015 5.82649 51.0916 5.76155 51.0688 5.70061C51.046 5.63966 51.0108 5.58401 50.9654 5.53712C50.6767 5.11598 50.2782 4.78027 49.8124 4.56569C49.624 4.52933 49.429 4.54961 49.2523 4.62394C49.0756 4.69827 48.9254 4.82325 48.8209 4.98283C48.4781 5.47543 48.3247 6.07347 48.3886 6.66854C48.3597 7.95997 49.2475 9.14283 48.965 10.4571C48.4174 9.75998 48.0311 8.94855 47.4489 8.28569C46.7185 7.36178 45.7081 6.69475 44.5665 6.38283C44.2768 6.97831 44.2273 7.66097 44.4282 8.2914C44.7164 8.95997 45.5638 8.87426 46.1518 9.14283Z" fill="#967B65"/>
<path d="M58.8926 10.6458C59.4915 10.5377 60.0349 10.2291 60.4318 9.77152C60.6917 9.28918 60.8542 8.76123 60.9102 8.21723C60.9206 8.03201 60.8799 7.84748 60.7926 7.68341C60.7052 7.51934 60.5746 7.3819 60.4145 7.2858C59.8738 6.93253 59.2934 6.64295 58.6851 6.42295C58.648 6.3987 58.606 6.38308 58.562 6.37724C58.518 6.37141 58.4733 6.37551 58.4311 6.38926C58.389 6.403 58.3505 6.42602 58.3186 6.4566C58.2867 6.48717 58.2622 6.52451 58.2469 6.5658C58.1265 6.82579 58.0636 7.1083 58.0625 7.39437C58.0625 7.5258 58.2181 7.55437 58.3219 7.59437C59.0063 7.78828 59.6477 8.10814 60.2127 8.53723C60.2992 8.63437 60.4952 8.80009 60.3338 8.91438C59.9848 9.20218 59.5685 9.39864 59.1232 9.4858C58.9079 9.55784 58.6776 9.5736 58.4544 9.53155C58.2312 9.48951 58.0227 9.39108 57.8492 9.2458C57.7236 9.05875 57.6413 8.84643 57.6085 8.62411C57.5756 8.40179 57.5928 8.17501 57.6589 7.96008C57.8492 7.00008 58.4141 6.17152 58.6735 5.23438C58.5236 5.2858 58.3392 5.30295 58.2642 5.45723C57.9991 5.93723 57.8203 6.45152 57.5955 6.94866C57.2499 7.70059 57.0541 8.51165 57.0191 9.33723C57.0129 9.56257 57.0632 9.78591 57.1653 9.98732C57.2674 10.1887 57.4183 10.3619 57.6044 10.4915C57.7905 10.6211 58.006 10.703 58.2318 10.7299C58.4576 10.7568 58.6866 10.7279 58.8984 10.6458H58.8926Z" fill="#967B65"/>
<path d="M69.078 11.8171C69.2214 11.9513 69.4111 12.0261 69.6084 12.0261C69.8056 12.0261 69.9953 11.9513 70.1387 11.8171C70.8079 11.0461 71.1652 10.0567 71.1418 9.03996C70.9688 9.11425 70.744 9.18282 70.7094 9.39996C70.5941 9.77711 70.5422 10.2914 70.133 10.4514C69.8101 10.5828 69.4931 10.3143 69.3201 10.0628C68.944 9.36136 68.8493 8.54489 69.055 7.77711C69.274 6.72568 69.8678 5.79425 70.1099 4.74854C69.5738 4.74854 69.4412 5.31997 69.2337 5.74282C68.5658 7.08352 68.228 8.56201 68.2479 10.0571C68.3087 10.7219 68.6024 11.3446 69.078 11.8171Z" fill="#967B65"/>
<path d="M29.7694 17.52C29.2909 17.5486 29.1929 18.0514 28.9912 18.4C28.4034 19.5852 28.1052 20.8909 28.1207 22.2114C28.1798 22.8032 28.4471 23.3555 28.8759 23.7714C29.0015 23.8909 29.1688 23.9576 29.3428 23.9576C29.5169 23.9576 29.6842 23.8909 29.8098 23.7714C30.4001 23.0905 30.7162 22.2176 30.6975 21.32C30.5476 21.3886 30.3459 21.4457 30.317 21.6343C30.2133 21.9714 30.1672 22.4229 29.7867 22.5657C29.4985 22.6857 29.2102 22.4457 29.0661 22.2229C28.7313 21.5984 28.6489 20.8711 28.8355 20.1886C29.0258 19.2686 29.5503 18.4457 29.7694 17.52Z" fill="#967B65"/>
<path d="M9.93863 78.3201C10.6707 78.0801 11.3971 77.8458 12.1177 77.6001C12.0773 77.7578 11.9981 77.9031 11.8871 78.023C11.5813 78.1659 11.2629 78.2807 10.9359 78.3658L9.65039 78.823C9.7138 78.6401 9.7138 78.3715 9.93863 78.3201Z" fill="#967B65"/>
<path d="M47.0231 71.6115C48.4643 71.2344 49.8651 70.7487 51.3006 70.3601L51.1795 70.9315C50.7867 71.0944 50.3843 71.2337 49.9747 71.3487C48.8833 71.725 47.773 72.0454 46.6484 72.3087C46.7176 72.0573 46.6888 71.6515 47.0231 71.6001V71.6115Z" fill="#967B65"/>
<path d="M77.8346 68.8743C78.7454 68.4972 79.6966 68.2343 80.6074 67.8572C80.5382 68.1257 80.4748 68.4629 80.1808 68.5829C79.6735 68.8172 79.1316 68.9543 78.6128 69.1543C77.7654 69.4629 76.9353 69.8286 76.0879 70.1372C76.1203 69.9076 76.1924 69.6853 76.3012 69.48C76.8013 69.2484 77.3131 69.0424 77.8346 68.8629V68.8743Z" fill="#967B65"/>
<path d="M71.2343 68.3715C71.2746 68.309 71.33 68.2575 71.3954 68.2216C71.4608 68.1856 71.5342 68.1665 71.609 68.1658C71.9255 68.3239 72.2137 68.5324 72.4622 68.7829C72.566 68.8915 72.7159 68.9829 72.7504 69.1372C72.5116 69.5751 72.2064 69.974 71.8454 70.3201C71.5535 69.9079 71.1737 69.5645 70.7328 69.3143C70.433 69.68 70.2255 70.1029 69.9142 70.4572C69.5626 70.1315 69.1071 69.9258 68.7613 69.5658C68.5826 69.3943 68.7613 69.16 68.8766 68.9943C69.0174 68.786 69.1818 68.5943 69.3666 68.4229C69.4934 68.3429 69.6087 68.4515 69.7182 68.5086C70.041 68.72 70.3465 68.9486 70.6867 69.1372C70.8481 68.8629 71.0326 68.6001 71.217 68.3429L71.2343 68.3715Z" fill="#967B65"/>
<path d="M12.8032 70.8571C12.8839 70.7314 13.0453 70.5714 13.2009 70.6742C13.6318 70.8948 14.0443 71.1489 14.4346 71.4343C14.2195 71.8473 13.9749 72.2445 13.7025 72.6228C13.3796 72.4114 13.0568 72.2 12.7225 72.0057C12.5899 71.9143 12.4112 71.8457 12.3535 71.6857C12.4653 71.3908 12.6165 71.1121 12.8032 70.8571Z" fill="#967B65"/>
<path d="M93.9013 68.04C95.2233 67.5257 96.5242 66.9543 97.804 66.3257C97.7464 66.6571 97.6599 67.0457 97.3025 67.1714C96.0458 67.7428 94.7775 68.3143 93.4805 68.8114C93.5381 68.52 93.5497 68.12 93.9013 68.0114V68.04Z" fill="#967B65"/>
<path d="M4.11018 67.4571C3.60031 66.3817 2.69183 65.5426 1.57371 65.1143C1.43536 65.5657 0.997244 66.0285 1.29124 66.5028C0.807008 67.28 0.345816 68.2171 0.536051 69.1371C0.57621 69.3969 0.691128 69.6396 0.867001 69.8363C1.04287 70.0329 1.27223 70.175 1.52758 70.2457C1.94422 70.3087 2.37033 70.2573 2.75958 70.0972C3.14884 69.937 3.48636 69.6741 3.73547 69.3371C4.10644 68.7843 4.24118 68.1082 4.11018 67.4571ZM2.00606 68.8857C1.77974 68.8657 1.5691 68.7626 1.41552 68.5966C1.26193 68.4307 1.17649 68.2138 1.17594 67.9885C1.10677 67.4571 1.52759 67.0514 1.71783 66.6057C2.52739 66.9283 3.21339 67.4963 3.67782 68.2285C3.46695 68.455 3.20681 68.6308 2.91714 68.7427C2.62747 68.8546 2.31589 68.8996 2.00606 68.8743V68.8857Z" fill="#967B65"/>
<path d="M58.2579 63.9256C58.0683 63.716 57.9634 63.4443 57.9634 63.1628C57.9634 62.8812 58.0683 62.6096 58.2579 62.3999C58.8893 62.9043 59.3268 63.6083 59.4973 64.3942C59.5978 64.9796 59.5027 65.5816 59.2264 66.1085C58.9594 66.5292 58.551 66.8429 58.0734 66.9942C56.4651 67.6352 54.7912 68.1008 53.0812 68.3828C52.3952 68.5542 51.6804 68.5428 50.9886 68.6685C49.9682 68.8399 48.9364 68.857 47.916 68.9713C46.7631 69.0856 45.564 69.0913 44.3938 69.1313C43.4426 69.1999 42.4914 69.1313 41.546 69.1313C40.1521 69.1448 38.7585 69.078 37.3724 68.9313C36.6963 68.8292 36.0293 68.6744 35.3778 68.4685C34.7677 68.1664 34.1886 67.8066 33.6484 67.3942C33.1603 67.051 32.7014 66.6688 32.2764 66.2513C32.6585 66.3588 33.0307 66.4984 33.389 66.6685C34.3778 66.9561 35.3825 67.187 36.3981 67.3599C37.0784 67.4228 37.7471 67.5542 38.4273 67.617C40.1221 67.7542 41.8227 67.7027 43.5175 67.7828C44.5494 67.7828 45.5698 67.7028 46.6016 67.6856C48.1005 67.6285 49.5935 67.4799 51.0866 67.3542C52.1819 67.1942 53.2887 67.0856 54.3782 66.8856C56.0232 66.6115 57.6231 66.1175 59.1341 65.417C59.0163 64.8258 58.6992 64.2918 58.2348 63.9027L58.2579 63.9256Z" fill="#967B65"/>
<path d="M97.7524 62.4343C97.5564 61.8628 97.5564 61.2914 97.3547 60.72C97.3017 60.5615 97.1956 60.4258 97.054 60.3354C96.9124 60.2449 96.7439 60.2052 96.5764 60.2228C96.2212 60.3352 95.8988 60.5313 95.6368 60.7943C94.9162 61.4457 94.5358 62.36 93.942 63.08C93.7294 63.2942 93.4739 63.4619 93.1919 63.5721C92.9099 63.6823 92.6077 63.7327 92.3048 63.72C91.8805 63.7222 91.4701 63.5697 91.1519 63.2914C90.9487 63.0992 90.8014 62.8565 90.7253 62.5886C90.3333 62.8228 90.2987 63.2971 90.2468 63.7028C90.2065 63.9086 90.3506 64.0743 90.4428 64.24C90.968 65.0076 91.2233 65.9254 91.1691 66.8514C90.9863 67.3715 90.6332 67.816 90.1661 68.1143C89.2551 68.7809 88.1375 69.1104 87.007 69.0457C86.4624 68.9943 85.9423 68.7968 85.5024 68.4743C85.142 68.1582 84.8817 67.7453 84.753 67.2857C84.6742 67.0684 84.6421 66.8372 84.659 66.6068C84.6759 66.3765 84.7413 66.1523 84.851 65.9486C85.1243 65.4148 85.3388 64.8535 85.4909 64.2743C85.3542 64.3105 85.2274 64.3765 85.1197 64.4674C85.012 64.5584 84.9261 64.672 84.8683 64.8C84.4305 65.5279 84.1553 66.3405 84.0613 67.1828C84.0065 67.5894 84.0382 68.0028 84.1543 68.3965C84.2705 68.7902 84.4686 69.1554 84.7357 69.4686C85.2798 70.0369 86.0172 70.3851 86.8053 70.4457C87.6179 70.4981 88.4307 70.3468 89.1688 70.0057C89.9246 69.6281 90.5757 69.0729 91.0654 68.3886C91.341 67.9565 91.5053 67.464 91.5439 66.9543C91.6187 66.3265 91.6303 65.6929 91.5785 65.0628C92.1497 65.1362 92.7295 65.0261 93.2329 64.7486C93.7024 64.3932 94.0782 63.9305 94.3282 63.4C94.4147 63.2971 94.4781 63.12 94.6453 63.1828C94.9162 63.3143 95.1468 63.52 95.435 63.64C95.9304 63.8575 96.4579 63.9945 96.9973 64.0457C97.1472 64.0457 97.3547 64.1257 97.4296 63.9486C97.6037 63.6163 97.7391 63.2654 97.8332 62.9028C97.8966 62.8057 97.7524 62.6171 97.7524 62.4343ZM95.4466 62.0514C95.7175 61.8286 96.0519 61.48 96.4381 61.6514C96.8243 61.8228 96.8762 62.3143 96.9685 62.68C96.3985 62.6199 95.8572 62.402 95.4062 62.0514H95.4466Z" fill="#967B65"/>
<path d="M46.8379 61.8513C47.2881 62.0088 47.7208 62.2118 48.1292 62.457C47.9844 62.9343 47.7161 63.3657 47.351 63.7085C46.9936 63.4685 46.5843 63.3027 46.2441 63.0285C46.3529 62.6011 46.5491 62.2004 46.8206 61.8513H46.8379Z" fill="#967B65"/>
<path d="M79.7375 64.5371C79.6814 63.9152 79.5695 63.2994 79.4032 62.6971C79.3617 62.5186 79.2521 62.3629 79.0973 62.2628C78.9425 62.1626 78.7547 62.1258 78.5731 62.16C77.8312 62.4903 77.1965 63.0185 76.7399 63.6857C76.3788 64.2165 75.9677 64.7121 75.512 65.1657C75.2797 65.3723 75.0042 65.5254 74.7053 65.6143C74.4063 65.7032 74.0913 65.7257 73.7826 65.68C73.1954 65.6462 72.6403 65.4026 72.2204 64.9943C71.4737 63.9527 71.0618 62.7119 71.0386 61.4343C71.0156 61.1383 70.9415 60.8483 70.8195 60.5771C70.1681 61.0229 70.2431 61.8857 69.8972 62.5086C69.6854 62.7905 69.4185 63.0273 69.1125 63.205C68.8065 63.3827 68.4676 63.4976 68.1159 63.5429C67.7126 63.5292 67.3122 63.4697 66.9226 63.3657C66.8589 63.7575 66.8765 64.1581 66.9745 64.5429C67.2348 64.7992 67.5775 64.9569 67.943 64.9886C67.531 66.245 66.6808 67.3147 65.5448 68.0057C64.9728 68.3749 64.3467 68.6544 63.6886 68.8343C62.859 68.8952 62.0255 68.8818 61.1983 68.7943C61.1666 68.7858 61.1332 68.7859 61.1015 68.7945C61.0699 68.8031 61.0411 68.8199 61.0182 68.8432C60.9953 68.8665 60.9791 68.8954 60.9712 68.927C60.9633 68.9586 60.9641 68.9917 60.9734 69.0229C61.3002 69.1188 61.6335 69.1913 61.9707 69.24C62.8969 69.4553 63.8368 69.608 64.7839 69.6971C65.1667 69.6636 65.5304 69.5162 65.8273 69.2743C66.9379 68.5157 67.7678 67.418 68.1908 66.1486C68.2804 65.7627 68.3439 65.3714 68.3811 64.9771C68.7236 64.8355 69.0486 64.6552 69.3496 64.44C69.7519 64.156 70.0575 63.7574 70.2258 63.2971C70.3179 62.8966 70.4393 62.5031 70.589 62.12C70.6783 62.8573 70.8053 63.5897 70.9694 64.3143C71.0681 64.885 71.2839 65.4296 71.6036 65.9143C71.9433 66.466 72.4773 66.8732 73.1024 67.0571C73.5172 67.1432 73.9475 67.1216 74.3515 66.9945C74.7554 66.8673 75.1194 66.6389 75.4082 66.3314C75.8464 65.9771 75.9847 65.3886 76.4862 65.0743C76.8793 65.561 77.4286 65.8997 78.0427 66.0343C78.4627 66.187 78.9004 66.2868 79.3456 66.3314C79.7002 65.8039 79.8403 65.1629 79.7375 64.5371ZM77.253 64.04C77.4728 63.7607 77.7631 63.5438 78.0946 63.4114C78.1827 63.401 78.2721 63.4134 78.354 63.4475C78.4358 63.4815 78.5073 63.5361 78.5615 63.6057C78.7525 63.9685 78.8607 64.3684 78.8786 64.7771C78.294 64.6371 77.7421 64.3868 77.253 64.04Z" fill="#967B65"/>
<path d="M48.7521 61.4458C49.2696 61.5736 49.7494 61.8203 50.1529 62.1658C49.9117 62.5921 49.64 63.0007 49.3401 63.3887C48.9942 63.1087 48.5792 62.9315 48.2275 62.6629C48.2275 62.6229 48.2275 62.5486 48.2275 62.5086C48.3775 62.1334 48.5709 61.7767 48.804 61.4458H48.7521Z" fill="#967B65"/>
<path d="M87.2427 59.6744C87.3119 59.5144 87.4503 59.3087 87.652 59.3601C88.0755 59.4926 88.4774 59.6851 88.8453 59.9315C88.6378 60.3544 88.4879 60.8058 88.2688 61.2172C87.8653 60.9372 87.3811 60.8001 86.9775 60.5258C86.9957 60.2181 87.0951 59.9206 87.2658 59.663L87.2427 59.6744Z" fill="#967B65"/>
<path d="M21.0819 61.5429C21.2607 61.4686 21.4221 61.6172 21.5662 61.7029C21.8636 61.8906 22.1417 62.1068 22.3963 62.3486C22.2151 62.748 21.9826 63.1225 21.7045 63.4629L21.595 63.5029C21.2318 63.2572 20.8917 62.9714 20.5285 62.7257C20.2922 62.5771 20.4882 62.2914 20.5977 62.1257C20.7072 61.96 20.8456 61.6572 21.0819 61.5543V61.5429Z" fill="#967B65"/>
<path d="M47.0808 60.3657C47.1904 60.16 47.2768 59.7943 47.5823 59.8514C48.0037 60.0232 48.404 60.2417 48.7756 60.5029C48.6231 60.9696 48.3803 61.4024 48.0608 61.7772C47.7207 61.4857 47.2768 61.3543 46.9425 61.0686C46.8214 60.84 47.0059 60.5886 47.0808 60.3657Z" fill="#967B65"/>
<path d="M2.02369 61.8514C2.26004 61.5428 2.31768 61.0742 2.68662 60.8914C3.19786 61.0862 3.68995 61.3272 4.15664 61.6114C3.98363 62.0687 3.75314 62.5026 3.47063 62.9028C3.01363 62.6196 2.53347 62.375 2.03521 62.1714C1.91992 62.536 1.72284 62.8701 1.45874 63.1485C1.29156 63.1485 1.13592 63.0514 0.9918 62.9828C0.66396 62.8138 0.348103 62.6229 0.0463973 62.4114C-0.0516027 62.1371 0.190511 61.8913 0.276982 61.6513C0.363453 61.4113 0.542158 61.1142 0.853453 61.2285C1.28004 61.3828 1.64897 61.6628 2.0698 61.8342L2.02369 61.8514Z" fill="#967B65"/>
<path d="M28.8528 59.6685C28.8545 59.5318 28.8949 59.3983 28.9693 59.2832C29.0436 59.168 29.1491 59.0758 29.2736 59.0171C29.3391 60.061 29.4856 61.0983 29.7118 62.1199C29.9251 63.6285 30.2594 65.1142 30.3805 66.6342C30.3752 67.0186 30.3307 67.4015 30.2479 67.7771C30.241 67.9732 30.1892 68.1652 30.0963 68.3384C30.0034 68.5117 29.8719 68.6617 29.7118 68.7771C29.7912 68.2722 29.8336 67.7623 29.8386 67.2514C29.7194 66.4628 29.5869 65.6742 29.4408 64.8857C29.2563 63.8514 29.1468 62.8057 28.9393 61.7714C28.7526 61.0798 28.7231 60.3557 28.8528 59.6514V59.6685Z" fill="#967B65"/>
<path d="M61.7574 57.3944C61.7862 57.2058 61.9592 57.103 62.1033 56.9944C62.1783 57.6972 62.1782 58.4115 62.3108 59.1144C62.3685 60.023 62.5184 60.9201 62.6567 61.823C62.772 62.8572 62.8873 63.8972 62.9161 64.9372C62.9084 65.3476 62.866 65.7567 62.7893 66.1601C62.754 66.4881 62.6457 66.8043 62.4722 67.0858C62.2301 66.8172 62.3858 66.423 62.3512 66.0972C62.2532 64.103 61.9188 62.1258 61.7747 60.1372C61.6882 59.2287 61.475 58.2858 61.7747 57.3944H61.7574Z" fill="#967B65"/>
<path d="M26.6557 63.3371C26.5692 62.5942 26.3962 61.8628 26.2809 61.1257C26.3732 60.6171 26.7998 60.2457 26.9496 59.7657C26.9842 59.5028 26.7018 59.3885 26.5461 59.2457C26.1825 58.9413 25.8862 58.5659 25.6756 58.1428C25.4854 58.4739 25.3271 58.8222 25.2029 59.1828C25.0761 59.5771 25.4566 59.8914 25.4969 60.2743C25.7506 61.7543 26.0734 63.2228 26.2406 64.72C26.3873 65.4547 26.474 66.2 26.5 66.9485C25.5436 67.145 24.5529 67.1018 23.6176 66.8228C23.7618 66.3657 24.1422 65.7714 23.658 65.3885C23.6089 65.6565 23.5454 65.9216 23.4678 66.1828C23.3409 66.4286 23.1392 66.6285 22.8913 66.7543C22.5799 66.9594 22.2499 67.1354 21.9055 67.28C20.6201 67.7863 19.2532 68.0592 17.8702 68.0857C17.2486 68.0393 16.6318 67.9438 16.0255 67.8C15.4056 67.6549 14.8188 67.3951 14.2961 67.0343C13.9493 66.7795 13.6881 66.427 13.5467 66.0228C13.0336 66.1828 12.8146 66.7142 12.3938 67.0114C11.845 67.4272 11.2235 67.7391 10.5606 67.9314C10.0994 67.0685 9.70164 66.0514 8.79082 65.5657C8.36063 65.8003 7.99685 66.1383 7.73293 66.5487C7.46901 66.9591 7.31342 67.4287 7.28047 67.9143C7.24025 68.3274 7.34621 68.7415 7.58022 69.0857C7.9383 69.3122 8.33966 69.4631 8.75922 69.529C9.17878 69.5949 9.60753 69.5743 10.0187 69.4685C9.79415 69.8443 9.54778 70.2068 9.28082 70.5543C8.9089 70.9956 8.47387 71.3806 7.98953 71.6971C7.07246 72.1771 6.07006 72.476 5.03801 72.5771C4.46065 72.5908 3.883 72.5678 3.30859 72.5085V72.8057C4.07393 73.0615 4.8712 73.2115 5.67788 73.2514C6.42068 73.3165 7.16891 73.2838 7.90306 73.1542C8.78111 72.6602 9.50354 71.9342 9.98989 71.0571C10.2948 70.5609 10.5095 70.0155 10.624 69.4457C10.6528 69.2114 10.9007 69.1314 11.0737 69.0343C11.8498 68.6263 12.5404 68.0755 13.1086 67.4114C13.2249 67.6632 13.3893 67.8902 13.5928 68.08C14.5598 68.7965 15.7061 69.2371 16.9075 69.3542C18.4409 69.64 19.9974 69.2228 21.4386 68.72C21.9206 68.5145 22.3787 68.2578 22.8048 67.9543C23.011 67.7755 23.2265 67.6077 23.4505 67.4514C24.3466 67.7672 25.2176 68.1493 26.0561 68.5943C26.332 68.442 26.5641 68.2225 26.7306 67.9565C26.897 67.6905 26.9923 67.3869 27.0073 67.0743C27.0247 65.8197 26.9068 64.5668 26.6557 63.3371ZM7.87423 67.6171C8.09329 67.3714 8.33541 66.9028 8.74471 67.0457C9.154 67.1885 9.06177 67.6743 9.09059 68.0057C8.87124 68.0488 8.64441 68.0358 8.43156 67.9678C8.21871 67.8998 8.02688 67.7791 7.87423 67.6171Z" fill="#967B65"/>
<path d="M21.6234 59.6057C21.5468 59.377 21.5242 59.1339 21.5572 58.8952C21.5902 58.6565 21.6779 58.4284 21.8136 58.2285C21.988 58.8837 21.912 59.5797 21.6003 60.1828C21.2828 60.425 20.8941 60.5575 20.4935 60.56C20.1073 60.6685 19.7037 60.9885 19.3002 60.7714C19.0465 60.24 18.9601 59.48 19.4962 59.0571C19.4615 59.4128 19.4849 59.7716 19.5654 60.1199C19.8718 60.1027 20.1716 60.025 20.4474 59.8914C20.4044 59.7043 20.4033 59.5101 20.4442 59.3225C20.485 59.135 20.5668 58.9586 20.6837 58.8057C20.8294 59.1482 20.885 59.5218 20.8451 59.8914C21.1144 59.8149 21.3752 59.7115 21.6234 59.5828V59.6057Z" fill="#967B65"/>
<path d="M67.9889 56.5942C68.6057 56.337 69.1995 56.0228 69.8336 55.7942C69.8047 56.057 69.7644 56.3656 69.4819 56.5142C68.427 57.0342 67.3259 57.4742 66.2422 57.937C65.7864 58.1752 65.3074 58.3666 64.8125 58.5085C64.8644 58.297 64.8701 58.0285 65.0661 57.8856C65.2952 57.7444 65.5387 57.6276 65.7925 57.537C66.5304 57.2399 67.251 56.9142 67.9889 56.6113V56.5942Z" fill="#967B65"/>
<path d="M8.11135 59.8572C8.11135 59.3772 7.99606 58.8229 8.38229 58.4458C8.57058 59.0513 8.51904 59.7052 8.23818 60.2744C7.99606 60.6572 7.50029 60.6287 7.11982 60.7715C6.73935 60.9144 6.36464 61.2287 5.96688 61.0915C5.817 61.0572 5.78818 60.8915 5.74207 60.7715C5.67647 60.5243 5.66887 60.2654 5.71983 60.0148C5.77079 59.7642 5.87896 59.5285 6.03605 59.3258C6.0937 59.6801 5.92652 60.1487 6.26664 60.3944C6.40465 60.4085 6.54414 60.394 6.67616 60.3517C6.80818 60.3094 6.92983 60.2402 7.03335 60.1487C6.9773 59.9265 6.97201 59.6948 7.01789 59.4704C7.06377 59.2459 7.15965 59.0345 7.29853 58.8515C7.37347 59.2287 7.41958 59.6115 7.49452 59.9944L8.14017 59.8629L8.11135 59.8572Z" fill="#967B65"/>
<path d="M87.5141 54.8572C87.2254 55.2273 86.969 55.6211 86.7474 56.0343C86.6206 56.3486 86.39 56.7086 86.563 57.0572C86.6106 57.1765 86.6888 57.2815 86.7899 57.3617C86.891 57.4418 87.0115 57.4945 87.1394 57.5143C87.4404 57.5803 87.7548 57.5461 88.0341 57.4169C88.3134 57.2878 88.542 57.071 88.6844 56.8C88.8195 56.5257 88.9128 56.233 88.9611 55.9315C88.8112 55.2686 88.0387 55.16 87.5141 54.8572ZM88.5287 56.5315C88.3489 56.6844 88.1298 56.7851 87.8959 56.8224C87.6619 56.8598 87.422 56.8322 87.2029 56.7429C87.1276 56.7101 87.0616 56.6597 87.0104 56.596C86.9592 56.5323 86.9243 56.4572 86.9089 56.3772C86.9964 56.1077 87.1143 55.8489 87.2605 55.6057C87.6213 55.7389 87.9687 55.9053 88.2982 56.1029C88.4192 56.2057 88.5633 56.3543 88.5287 56.5315Z" fill="#967B65"/>
<path d="M13.5875 58.8686C13.5875 58.48 13.8296 58.1257 13.8296 57.7257C13.8296 57.5028 13.8642 57.1543 13.5933 57.0857C13.3633 57.1061 13.1407 57.1766 12.9414 57.2922C12.7421 57.4078 12.571 57.5655 12.4403 57.7543C12.2204 57.9973 12.101 58.3136 12.106 58.64C12.3604 58.9377 12.672 59.1825 13.0226 59.36C12.4807 60.0971 11.6275 60.5028 10.9242 61.0743C10.5305 61.3072 10.2094 61.6434 9.99609 62.0457C10.3492 61.8754 10.6918 61.6846 11.0222 61.4743C11.9315 61.0363 12.7029 60.3606 13.2532 59.52C13.606 59.801 13.9014 60.1463 14.1236 60.5371C14.2235 60.3317 14.2897 60.1118 14.3196 59.8857C14.2504 59.4743 13.8296 59.2343 13.5875 58.8686ZM13.403 58.7314C13.0946 58.5818 12.8093 58.3894 12.5556 58.16C12.6601 58.0353 12.7969 57.9412 12.9513 57.8879C13.1057 57.8345 13.2718 57.8239 13.4319 57.8571C13.4576 58.1481 13.4557 58.4408 13.4261 58.7314H13.403Z" fill="#967B65"/>
<path d="M30.6108 55.6286C30.1675 56.0012 29.843 56.4936 29.6769 57.0457C29.3944 56.9029 29.1523 56.7086 28.8583 56.5943C28.5305 56.7202 28.2449 56.9348 28.034 57.2136C27.823 57.4924 27.6952 57.8243 27.665 58.1715C27.8658 57.7675 28.205 57.4474 28.622 57.2686C28.9715 57.4867 29.3447 57.6649 29.7346 57.8C30.1896 57.7753 30.6201 57.588 30.9465 57.2728C31.2729 56.9577 31.4731 56.5359 31.5101 56.0857C31.5216 55.6572 30.9451 55.5143 30.6108 55.6286ZM30.801 56.8972C30.497 57.0388 30.1623 57.1036 29.8268 57.0857C29.9241 56.8316 30.0645 56.5959 30.2419 56.3886C30.3804 56.2994 30.548 56.2657 30.7107 56.2943C30.8734 56.3229 31.019 56.4118 31.1181 56.5429C31.1354 56.7372 30.9394 56.8172 30.801 56.8743V56.8972Z" fill="#967B65"/>
<path d="M6.67008 56.9543C7.47137 56.64 8.29573 56.3828 9.10279 56.0857C9.04005 56.3113 8.94903 56.5282 8.83184 56.7314C8.68019 56.8294 8.51772 56.91 8.34761 56.9714C7.12549 57.4171 5.90338 57.8628 4.6582 58.2571C4.74467 58.0114 4.73314 57.6514 5.01561 57.5371C5.55173 57.2971 6.12243 57.1486 6.67008 56.9657V56.9543Z" fill="#967B65"/>
<path d="M20.7474 56.0857C20.8686 55.8099 20.9312 55.5123 20.9312 55.2114C20.9312 54.9106 20.8686 54.613 20.7474 54.3372C20.3777 54.4151 20.044 54.611 19.7973 54.8948C19.5505 55.1786 19.4044 55.5347 19.3811 55.9086C19.6272 56.1912 19.9244 56.4257 20.2574 56.6C19.7796 57.1541 19.2221 57.6354 18.6029 58.0286C17.9054 58.5029 17.081 58.8229 16.5449 59.4914C16.9987 59.4112 17.4329 59.2464 17.8247 59.0057C18.4511 58.6885 19.0325 58.2907 19.5541 57.8229C19.9001 57.4814 20.2004 57.0973 20.4476 56.68C20.8761 56.9252 21.2121 57.3024 21.4046 57.7543C21.5344 57.5375 21.6169 57.2961 21.6467 57.0457C21.4968 56.6286 21.0817 56.3772 20.7474 56.0857ZM19.7616 55.3829C19.9649 55.2397 20.1833 55.119 20.413 55.0229C20.5123 55.3239 20.5667 55.6377 20.5744 55.9543C20.2619 55.8299 19.9834 55.6341 19.7616 55.3829Z" fill="#967B65"/>
</g>
<defs>
<clipPath id="clip0_327_230">
<rect width="98" height="84" fill="white"/>
</clipPath>
</defs>
</svg>
