<svg width="109" height="63" viewBox="0 0 109 63" fill="none" xmlns="http://www.w3.org/2000/svg">
<path d="M100.954 62.9553C84.1393 55.8295 68.9268 56.1004 54.5979 60.4497C32.52 56.594 17.402 57.1905 7.70459 62.9553V45.0576H100.954V62.9553Z" fill="#CBCBCB"/>
<path d="M100.954 58.0335C85.463 51.0145 69.9905 50.5613 54.2848 58.0335C38.1982 53.4019 22.6472 53.4503 7.61523 58.0335V3.6244C23.5972 -1.14552 39.1436 -1.03089 54.2848 3.6244C70.2788 -1.01481 85.8493 -1.16195 100.954 3.6244V58.0335Z" fill="#E5E5E5"/>
<path d="M11.8131 10.3766L11.292 9.04287C11.4962 8.96309 16.3764 7.07648 23.5386 6.11413C30.1602 5.22422 40.0256 5.01178 49.4217 9.05196L48.856 10.3674C39.7742 6.46239 30.2005 6.66802 23.7682 7.52795C16.767 8.46417 11.8618 10.3575 11.8131 10.3766Z" fill="white"/>
<path d="M11.8131 15.3877L11.292 14.054C11.4962 13.9743 16.3764 12.0877 23.5386 11.1253C30.1602 10.2355 40.0256 10.023 49.4217 14.0631L48.856 15.3785C39.7742 11.4736 30.2005 11.679 23.7682 12.5391C16.767 13.4753 11.8618 15.3687 11.8131 15.3877Z" fill="white"/>
<path d="M11.8131 20.3993L11.292 19.0656C11.4962 18.9858 16.3764 17.0992 23.5386 16.1368C30.1602 15.2469 40.0256 15.0345 49.4217 19.0747L48.856 20.3901C39.7742 16.4851 30.2005 16.6905 23.7682 17.5507C16.767 18.4869 11.8618 20.3802 11.8131 20.3993Z" fill="white"/>
<path d="M11.8131 25.4104L11.292 24.0768C11.4962 23.997 16.3764 22.1104 23.5386 21.148C30.1602 20.2583 40.0256 20.0456 49.4217 24.0858L48.856 25.4013C39.7742 21.4963 30.2005 21.7018 23.7682 22.5618C16.767 23.498 11.8618 25.3914 11.8131 25.4104Z" fill="white"/>
<path d="M11.8131 30.422L11.292 29.0883C11.4962 29.0085 16.3764 27.1219 23.5386 26.1595C30.1602 25.2696 40.0256 25.0572 49.4217 29.0974L48.856 30.4128C39.7742 26.5077 30.2005 26.7133 23.7682 27.5734C16.767 28.5096 11.8618 30.4029 11.8131 30.422Z" fill="white"/>
<path d="M11.8131 35.4331L11.292 34.0994C11.4962 34.0196 16.3764 32.133 23.5386 31.1707C30.1602 30.281 40.0256 30.0683 49.4217 34.1085L48.856 35.4239C39.7742 31.5189 30.2005 31.7246 23.7682 32.5845C16.767 33.5207 11.8618 35.4141 11.8131 35.4331Z" fill="white"/>
<path d="M58.5274 45.9929L58.0063 44.6593C58.2106 44.5795 63.0908 42.6929 70.2529 41.7305C76.8746 40.8408 86.74 40.6282 96.136 44.6683L95.5704 45.9838C86.4886 42.0787 76.9149 42.2844 70.4826 43.1443C63.4814 44.0805 58.5762 45.9739 58.5274 45.9929Z" fill="#967B65"/>
<path d="M58.0879 36.3751V9.00419L58.5904 8.84723C71.3237 4.8698 83.9954 4.87058 96.2531 8.84959L96.748 9.01022V36.3387L95.7793 35.973C83.0233 31.1588 70.6752 31.1559 59.0781 35.9646L58.0879 36.3751ZM76.9818 30.9252C82.975 30.9252 89.0865 32.0424 95.3161 34.2766V10.0531C83.6619 6.37791 71.6231 6.37992 59.5197 10.059V34.2434C65.0809 32.0525 71.0046 30.9268 76.9818 30.9252Z" fill="white"/>
<path d="M95.3462 45.2836L95.5337 40.7284L101.967 27.937C102.149 27.5734 102.445 27.2793 102.809 27.1C103.033 26.9886 103.276 26.9228 103.525 26.9066C103.774 26.8903 104.024 26.9239 104.26 27.0053C104.533 27.0995 104.781 27.2556 104.984 27.4614C105.187 27.6671 105.34 27.917 105.43 28.1915C105.469 28.31 105.496 28.432 105.512 28.5558C105.558 28.9231 105.493 29.2957 105.325 29.6258L98.8828 42.4346L95.3462 45.2836Z" fill="#967B65"/>
<path d="M103.611 26.9924L96.6267 40.8775L96.0942 40.6097L102.849 27.1803C103.086 27.0618 103.346 26.9976 103.611 26.9924Z" fill="#3F3D56"/>
<path d="M105.423 28.5673L98.7053 41.9231L98.1729 41.6553L105.142 27.7991C105.228 27.9298 105.296 28.0712 105.345 28.2197C105.382 28.3328 105.408 28.4492 105.423 28.5673Z" fill="#3F3D56"/>
<path d="M104.754 27.3755L97.6931 41.414L97.1606 41.1462L104.23 27.0901C104.306 27.1159 104.379 27.1468 104.45 27.1827C104.558 27.2368 104.659 27.3014 104.754 27.3755Z" fill="#3F3D56"/>
<path d="M96.1539 44.5182L95.4434 45.0904L95.5029 43.5818C95.7469 43.6664 96.011 44.0337 96.1539 44.5182Z" fill="#3F3D56"/>
<path d="M26.3632 60.3642L26.0869 60.8323L25.8037 59.9783C25.9575 59.9744 26.1819 60.1238 26.3632 60.3642Z" fill="#3F3D56"/>
<path d="M54.4639 3.62427H54.106V57.8612H54.4639V3.62427Z" fill="#CBCBCB"/>
</svg>
